<svg xmlns="http://www.w3.org/2000/svg" viewBox="0 0 64 64"><defs><style>.cls-1{fill:#e1e4ed;}.cls-2{fill:#afb4c8;}.cls-3{fill:#99a1b1;}.cls-4{fill:#ffca6b;}.cls-5{fill:#f26973;}.cls-6{fill:#f2cac1;}.cls-7{fill:#fdddd7;}.cls-8{fill:#96796d;}.cls-9{fill:#ffe474;}.cls-10{fill:#5ce0bf;}.cls-11{fill:#393045;}</style></defs><title>12-customer service</title><g id="_12-customer_service" data-name="12-customer service"><path class="cls-1" d="M27,33v5a4,4,0,0,0-3.52-3.97L24,33A10,10,0,0,0,4,33l.52,1.03A4,4,0,0,0,1,38V33a13,13,0,0,1,26,0Z"/><polygon class="cls-1" points="14 56 11 59 8 56 8 52 10 52 14 56"/><polygon class="cls-1" points="21 52 21 55 17 59 14 56 18 52 21 52"/><path class="cls-2" d="M26,56v7H14V56l3,3,4-4V52h1A4,4,0,0,1,26,56Z"/><path class="cls-3" d="M14,56v7H2V56a4,4,0,0,1,4-4H8v4l3,3Z"/><path class="cls-4" d="M4.52,34.03,4,33a10,10,0,0,1,20,0l-.52,1.03L23,35v2c0,.34-.01.68-.02,1a39.227,39.227,0,0,1-4.17-.2C10,36.86,10,33,10,33c0,4.81-4.63,4.99-4.98,5-.01-.32-.02-.66-.02-1V35Z"/><path class="cls-5" d="M5.02,38a18.921,18.921,0,0,0,.53,4H5a4,4,0,0,1-.48-7.97L5,35v2C5,37.34,5.01,37.68,5.02,38Z"/><path class="cls-5" d="M25,41.46A3.989,3.989,0,0,1,23,42h-.55a18.921,18.921,0,0,0,.53-4c.01-.32.02-.66.02-1V35l.48-.97A4,4,0,0,1,25,41.46Z"/><path class="cls-6" d="M18,48.12V52l-4,4-4-4V48.12A8.969,8.969,0,0,0,14,49,8.969,8.969,0,0,0,18,48.12Z"/><path class="cls-7" d="M22.45,42a10.408,10.408,0,0,1-1.86,4A7.336,7.336,0,0,1,18,48.12,8.969,8.969,0,0,1,14,49a8.969,8.969,0,0,1-4-.88C8.07,47.17,6.38,45.31,5.55,42a18.921,18.921,0,0,1-.53-4c.35-.01,4.98-.19,4.98-5,0,0,0,3.86,8.81,4.8a39.227,39.227,0,0,0,4.17.2A18.921,18.921,0,0,1,22.45,42Z"/><path class="cls-6" d="M42.18,18H42a3,3,0,0,1-.48-5.96L42,13v2A23.042,23.042,0,0,0,42.18,18Z"/><path class="cls-6" d="M60.48,12.04A3,3,0,0,1,60,18h-.18A23.042,23.042,0,0,0,60,15V13Z"/><path class="cls-8" d="M60.48,12.04,60,13v2H57l-2-4-2,4H42V13l-.48-.96L41,11a10,10,0,0,1,20,0Z"/><path class="cls-7" d="M59.82,18c-.58,4.59-2.53,6.99-4.82,8.12a9.531,9.531,0,0,1-8,0c-2.29-1.13-4.24-3.53-4.82-8.12A23.042,23.042,0,0,1,42,15H53l2-4,2,4h3A23.042,23.042,0,0,1,59.82,18Z"/><path class="cls-6" d="M55,26.12V30a4,4,0,0,1-8,0V26.12a9.531,9.531,0,0,0,8,0Z"/><circle class="cls-3" cx="57" cy="55" r="2"/><circle class="cls-3" cx="49" cy="55" r="2"/><circle class="cls-3" cx="41" cy="55" r="2"/><path class="cls-9" d="M58,41H51V34a4,4,0,0,0,4-4h4a4,4,0,0,1,4,4v7Z"/><path class="cls-4" d="M44,41H39V34a4,4,0,0,1,4-4h4a4,4,0,0,0,4,4v7Z"/><path class="cls-10" d="M63,47V63H35V57l-6-6h6V47Zm-4,8a2,2,0,1,0-2,2A2.006,2.006,0,0,0,59,55Zm-8,0a2,2,0,1,0-2,2A2.006,2.006,0,0,0,51,55Zm-8,0a2,2,0,1,0-2,2A2.006,2.006,0,0,0,43,55Z"/><polygon class="cls-5" points="35 13 29 13 29 17 11 17 11 1 29 1 29 7 35 13"/><path class="cls-11" d="M14,19A14.015,14.015,0,0,0,0,33v5a5,5,0,0,0,4.8,4.979A9.554,9.554,0,0,0,9,48.7V51H6a5.006,5.006,0,0,0-5,5v7a1,1,0,0,0,1,1H26a1,1,0,0,0,1-1V56a5.006,5.006,0,0,0-5-5H19v-2.3A8.35,8.35,0,0,0,21.043,47H23a1,1,0,0,0,.707-.293l2-2A1,1,0,0,0,26,44V41.992A5.006,5.006,0,0,0,28,38V33A14.015,14.015,0,0,0,14,19ZM2,38a3,3,0,0,1,1.978-2.809L4,35.234V37c0,.351.01.7.021,1.033a20.9,20.9,0,0,0,.308,2.885A3,3,0,0,1,2,38Zm20.1-3.443A1,1,0,0,0,22,35v1.989q-1.456-.03-2.71-.149C17.122,34.506,17,32.991,17,32.976L16,33H15a6.613,6.613,0,0,0,1.367,3.4C11.228,35.285,11,33,11,33a1,1,0,0,0-2,0,3.642,3.642,0,0,1-3,3.866V35a1,1,0,0,0-.1-.443l-.48-.97,0-.007L5,32.768a9,9,0,0,1,17.994,0ZM17,51.586l-3,3-3-3V49.565a10.574,10.574,0,0,0,6,0ZM9.586,53l3,3L11,57.586l-2-2V53ZM3,56a3,3,0,0,1,3-3H7v3a1,1,0,0,0,.293.707l3,3a1,1,0,0,0,1.414,0L13,58.414V62H3Zm22,0v6H15V58.414l1.293,1.293a1,1,0,0,0,1.414,0l4-4A1,1,0,0,0,22,55V53A3,3,0,0,1,25,56Zm-5-3v1.586l-3,3L15.414,56l3-3Zm-2.444-5.775A7.946,7.946,0,0,1,14,48a7.935,7.935,0,0,1-3.558-.777c-1.931-.951-3.251-2.789-3.922-5.467a17.35,17.35,0,0,1-.427-2.879A5.822,5.822,0,0,0,10.415,35.8c1.275,1.231,3.7,2.5,8.288,2.992.971.1,2.04.169,3.2.194a17.291,17.291,0,0,1-.418,2.771A9.8,9.8,0,0,1,20.068,45H16v2h1.957C17.824,47.077,17.694,47.158,17.556,47.225ZM22.586,45h-.2a12.2,12.2,0,0,0,.808-2.013,4.9,4.9,0,0,0,.8-.1v.7ZM24.5,40.594a3.038,3.038,0,0,1-.829.317,20.971,20.971,0,0,0,.307-2.879C23.99,37.7,24,37.351,24,37V35.234l.022-.044a2.989,2.989,0,0,1,.479,5.4ZM26,34.012a4.95,4.95,0,0,0-1.095-.613A.994.994,0,0,0,25,33,11,11,0,0,0,3,33a1,1,0,0,0,.1.4,4.99,4.99,0,0,0-1.1.613V33a12,12,0,0,1,24,0Z"/><path class="cls-11" d="M59,29H56V26.691c2.484-1.464,4.053-4.069,4.676-7.759a3.991,3.991,0,0,0,1.206-7.459l.013-.026A1,1,0,0,0,62,11a11,11,0,0,0-22,0,1,1,0,0,0,.1.447l.015.029a3.988,3.988,0,0,0,1.2,7.456c.624,3.692,2.194,6.3,4.676,7.759V29H43a5.006,5.006,0,0,0-5,5v7a1,1,0,0,0,1,1H63a1,1,0,0,0,1-1V34A5.006,5.006,0,0,0,59,29Zm-8,4a3,3,0,0,1-3-3V27.566a10.586,10.586,0,0,0,6,0V30A3,3,0,0,1,51,33Zm9.941-16.246C60.978,16.192,61,15.61,61,15V13.267a1.992,1.992,0,0,1-.059,3.487ZM51,2a9.01,9.01,0,0,1,9,8.77l-.892,1.783A1,1,0,0,0,59,13v1H57.618L55.9,10.553a1.042,1.042,0,0,0-1.79,0L52.382,14H50.618L51.9,11.447A1,1,0,0,0,52,11V10H50v.764L48.382,14H46.618L47.9,11.447A1,1,0,0,0,48,11V10H46v.764L44.382,14H43V13a1,1,0,0,0-.1-.447L42,10.77A9.01,9.01,0,0,1,51,2ZM40,15a1.979,1.979,0,0,1,1-1.727V15c0,.61.022,1.193.059,1.754A1.994,1.994,0,0,1,40,15Zm3.171,2.869c-.075-.575-.117-1.21-.142-1.869H53a1,1,0,0,0,.9-.553L55,13.236l1.1,2.211A1,1,0,0,0,57,16h1.971c-.025.659-.067,1.3-.143,1.875-.469,3.709-1.905,6.182-4.272,7.349a8.535,8.535,0,0,1-7.114,0C45.077,24.057,43.641,21.584,43.171,17.869ZM40,34a3,3,0,0,1,3-3h3.1A5.016,5.016,0,0,0,50,34.9V40H45V36H43v4H40Zm22,6H59V36H57v4H52V34.9A5.016,5.016,0,0,0,55.9,31H59a3,3,0,0,1,3,3Z"/><path class="cls-11" d="M63,46H35a1,1,0,0,0-1,1v3H29a1,1,0,0,0-.707,1.707L34,57.414V63a1,1,0,0,0,1,1H63a1,1,0,0,0,1-1V47A1,1,0,0,0,63,46ZM62,62H36V57a1,1,0,0,0-.293-.707L31.414,52H35a1,1,0,0,0,1-1V48H62Z"/><path class="cls-11" d="M11,18H29a1,1,0,0,0,1-1V14h5a1,1,0,0,0,.707-1.707L30,6.586V1a1,1,0,0,0-1-1H11a1,1,0,0,0-1,1V17A1,1,0,0,0,11,18ZM12,2H28V7a1,1,0,0,0,.293.707L32.586,12H29a1,1,0,0,0-1,1v3H12Z"/><path class="cls-11" d="M20,3a4,4,0,0,0-4,4h2a2,2,0,1,1,2,2,1,1,0,0,0-1,1v2h2V10.874A4,4,0,0,0,20,3Z"/><rect class="cls-11" x="19" y="13" width="2" height="2"/><path class="cls-11" d="M41,58a3,3,0,1,0-3-3A3,3,0,0,0,41,58Zm0-4a1,1,0,1,1-1,1A1,1,0,0,1,41,54Z"/><path class="cls-11" d="M49,58a3,3,0,1,0-3-3A3,3,0,0,0,49,58Zm0-4a1,1,0,1,1-1,1A1,1,0,0,1,49,54Z"/><path class="cls-11" d="M57,58a3,3,0,1,0-3-3A3,3,0,0,0,57,58Zm0-4a1,1,0,1,1-1,1A1,1,0,0,1,57,54Z"/></g></svg>